<?xml version="1.0" encoding="utf-8"?>
<svg width="30px" height="29px" viewBox="0 0 30 29" version="1.1" xmlns:xlink="http://www.w3.org/1999/xlink" xmlns="http://www.w3.org/2000/svg">
  <desc>Created with Lunacy</desc>
  <g id="notification-bell">
    <g id="Capa_1">
      <g id="Group">
        <path d="M25.4502 23.7048C22.3757 22.3131 22.2588 16.3392 22.2565 16.1884L22.2565 12.1807C22.2565 8.32338 19.9051 5.00653 16.5636 3.59425C16.5564 1.61111 14.9451 0 12.9652 0C10.9853 0 9.37398 1.61121 9.36675 3.59415C6.02542 5.00643 3.67393 8.32328 3.67393 12.1806L3.67393 16.1883C3.67176 16.3391 3.55471 22.313 0.480138 23.7048C0.129895 23.8634 -0.0625999 24.2455 0.0183783 24.6221C0.0992619 24.9988 0.431542 25.2678 0.815916 25.2678L8.61024 25.2678C8.77003 26.1489 9.18565 26.9686 9.82132 27.6325C10.6656 28.5142 11.7821 28.9999 12.9651 28.9999C14.1481 28.9999 15.2646 28.5142 16.1088 27.6325C16.7446 26.9685 17.1602 26.1488 17.3199 25.2678L25.1142 25.2678C25.4986 25.2678 25.8308 24.9989 25.9118 24.6221C25.9929 24.2455 25.8005 23.8634 25.4502 23.7048L25.4502 23.7048ZM21.4002 20.843C21.7234 21.8252 22.1811 22.8116 22.83 23.6324L3.10028 23.6324C3.74914 22.8117 4.20679 21.8253 4.52999 20.843L21.4002 20.843L21.4002 20.843ZM12.9652 1.63551C13.8608 1.63551 14.618 2.23873 14.8549 3.06097C14.2445 2.93407 13.6125 2.86716 12.9652 2.86716C12.3179 2.86716 11.6859 2.93402 11.0755 3.06097C11.3124 2.23878 12.0697 1.63551 12.9652 1.63551L12.9652 1.63551ZM5.30555 16.1934L5.30555 12.1805C5.30555 7.94695 8.74161 4.50268 12.9652 4.50268C17.1888 4.50268 20.6248 7.94695 20.6248 12.1805L20.6248 16.2001C20.6259 16.3231 20.645 17.6159 20.9701 19.2074L4.96013 19.2074C5.28536 17.6144 5.30456 16.3193 5.30555 16.1934L5.30555 16.1934ZM12.9652 27.3645C11.72 27.3645 10.6332 26.4645 10.2844 25.2679L15.6459 25.2679C15.2971 26.4645 14.2105 27.3645 12.9652 27.3645L12.9652 27.3645Z" transform="translate(0.0348508 0)" id="Shape" fill="#949FB3" stroke="none" />
        <path d="M6.3656 0C2.8556 0 0 2.86233 0 6.38066C0 6.8323 0.365276 7.19844 0.815833 7.19844C1.26639 7.19844 1.63167 6.8323 1.63167 6.38066C1.63167 3.76417 3.7553 1.63551 6.36565 1.63551C6.81621 1.63551 7.18148 1.26937 7.18148 0.817734C7.18144 0.366054 6.81616 0 6.3656 0L6.3656 0Z" transform="translate(6.634444 5.650024)" id="Shape" fill="#949FB3" stroke="none" />
      </g>
    </g>
    <path d="M6 12C9.31371 12 12 9.31371 12 6C12 2.68629 9.31371 0 6 0C2.68629 0 0 2.68629 0 6C0 9.31371 2.68629 12 6 12Z" transform="translate(18 2)" id="Oval" fill="#FF9033" stroke="none" />
    <g id="1" fill="#FFFFFF" transform="translate(21 1)">
      <path d="M3.71777 9.2124L2.35986 9.2124L2.35986 5.49463L2.37305 4.88379L2.39502 4.21582Q2.05664 4.5542 1.9248 4.65967L1.18652 5.25293L0.531738 4.43555L2.60156 2.7876L3.71777 2.7876L3.71777 9.2124Z" />
    </g>
  </g>
</svg>