<?xml version="1.0" encoding="utf-8"?>
<svg width="31px" height="31px" viewBox="0 0 31 31" version="1.1" xmlns:xlink="http://www.w3.org/1999/xlink" xmlns="http://www.w3.org/2000/svg">
  <desc>Created with Lunacy</desc>
  <g id="black-settings-button">
    <g id="Capa_1">
      <path d="M30.6204 15.3102C30.6204 14.1714 29.7999 12.9574 28.7882 12.5993C27.7766 12.2412 26.796 11.3643 26.5107 10.6729C26.2254 9.98137 26.2994 8.66545 26.7612 7.69622C27.2224 6.727 26.9428 5.28771 26.1374 4.48235C25.3327 3.67698 23.8934 3.39798 22.9236 3.85918C21.9543 4.32039 20.6403 4.39567 19.9507 4.11035C19.2611 3.82502 18.3836 2.84314 18.0243 1.83153C17.6643 0.819918 16.449 0 15.3102 0C14.1714 0 12.9561 0.819918 12.5961 1.83153C12.2361 2.84314 11.3593 3.82502 10.6697 4.11035C9.9801 4.39567 8.66545 4.32039 7.69622 3.85918C6.727 3.39798 5.28771 3.67698 4.48235 4.48235C3.67698 5.28771 3.39798 6.72637 3.85918 7.69622C4.32039 8.66608 4.39378 9.98073 4.10718 10.6716C3.82059 11.3624 2.84314 12.2412 1.83153 12.5993C0.819918 12.9574 0 14.1714 0 15.3102C0 16.449 0.819918 17.6643 1.83153 18.0243C2.84314 18.3836 3.82186 19.2624 4.10845 19.952C4.39504 20.6409 4.32039 21.955 3.85918 22.9242C3.39798 23.8934 3.67698 25.3327 4.48235 26.1381C5.28771 26.9428 6.72637 27.2224 7.69622 26.7612C8.66608 26.3 9.9801 26.2254 10.6697 26.5113C11.3599 26.7973 12.2361 27.7817 12.5961 28.7914C12.9561 29.8011 14.1714 30.6204 15.3102 30.6204C16.449 30.6204 17.6643 29.8011 18.0243 28.7914C18.3836 27.7817 19.2599 26.7986 19.9494 26.5113C20.639 26.2247 21.955 26.3 22.9236 26.7619C23.8934 27.2231 25.3327 26.9434 26.1374 26.1387C26.9428 25.3333 27.2224 23.894 26.7612 22.9248C26.3 21.955 26.2241 20.6409 26.5094 19.9513C26.7948 19.2618 27.7773 18.3843 28.7889 18.0249C29.8005 17.6643 30.6204 16.449 30.6204 15.3102L30.6204 15.3102ZM15.3102 20.9282C12.2039 20.9282 9.69224 18.4165 9.69224 15.3165C9.69224 12.2102 12.2039 9.69857 15.3102 9.69857C18.4096 9.69857 20.9218 12.2102 20.9218 15.3165C20.9218 18.4165 18.4102 20.9282 15.3102 20.9282L15.3102 20.9282Z" id="Shape" fill="#949FB3" stroke="none" />
    </g>
  </g>
</svg>