<?xml version="1.0" encoding="utf-8"?>
<svg width="28px" height="28px" viewBox="0 0 28 28" version="1.1" xmlns:xlink="http://www.w3.org/1999/xlink" xmlns="http://www.w3.org/2000/svg">
  <desc>Created with Lunacy</desc>
  <path d="M26.309 1.3155C24.554 -0.4385 21.6995 -0.4385 19.9445 1.3155L1.9135 19.3465C1.905 19.355 1.9 19.3655 1.8925 19.3745C1.882 19.3865 1.873 19.3995 1.8635 19.4125C1.837 19.4495 1.8165 19.489 1.801 19.532C1.7965 19.545 1.79 19.5565 1.7865 19.5695C1.785 19.5745 1.782 19.5795 1.7805 19.5845L0.013 27.0095C0.005 27.043 0.003 27.077 0.002 27.1105C0.002 27.117 0 27.123 0 27.1295C0.0005 27.1865 0.013 27.242 0.0325 27.2955C0.037 27.308 0.042 27.319 0.0475 27.331C0.072 27.3845 0.1025 27.436 0.1455 27.479C0.193 27.5265 0.249 27.563 0.3095 27.588C0.37 27.613 0.4345 27.6255 0.499 27.6255C0.5375 27.6255 0.5765 27.621 0.6145 27.612L8.0395 25.8445C8.053 25.8415 8.065 25.834 8.078 25.8295C8.095 25.824 8.111 25.8175 8.1275 25.81C8.1635 25.7935 8.197 25.773 8.228 25.7485C8.24 25.739 8.2525 25.732 8.264 25.7215C8.268 25.7175 8.273 25.7155 8.277 25.7115L26.3085 7.68C28.0635 5.925 28.0635 3.07 26.309 1.3155L26.309 1.3155ZM25.602 2.0225C26.846 3.267 26.952 5.221 25.927 6.591L21.0335 1.6975C22.404 0.6725 24.358 0.7785 25.602 2.0225L25.602 2.0225ZM23.127 9.4475L18.177 4.4975L18.884 3.7905L23.834 8.7405L23.127 9.4475L23.127 9.4475ZM2.4805 25.144C2.285 24.9485 1.969 24.9485 1.7735 25.144L1.395 25.5225L2.672 20.1585L4.883 19.913L4.5985 22.474C4.5965 22.493 4.6035 22.5105 4.6035 22.529C4.6035 22.548 4.5965 22.565 4.5985 22.584C4.6005 22.6005 4.609 22.614 4.6125 22.63C4.6185 22.659 4.627 22.6855 4.6375 22.7125C4.6505 22.745 4.666 22.7745 4.685 22.803C4.7005 22.826 4.716 22.8465 4.735 22.8665C4.759 22.892 4.785 22.9135 4.8135 22.9335C4.836 22.949 4.8575 22.9635 4.8825 22.9755C4.9155 22.991 4.95 23 4.986 23.0085C5.005 23.013 5.0205 23.0235 5.04 23.026C5.058 23.028 5.076 23.029 5.0945 23.029C5.0945 23.029 5.095 23.029 5.095 23.029C5.095 23.029 5.0955 23.029 5.0955 23.029L5.096 23.029C5.096 23.029 5.0965 23.029 5.0965 23.029C5.1145 23.029 5.133 23.028 5.151 23.026L7.712 22.7415L7.4665 24.9525L2.102 26.2295L2.4805 25.851C2.6755 25.656 2.6755 25.3395 2.4805 25.144L2.4805 25.144ZM8.7555 22.4045L19.9445 11.215C20.14 11.0195 20.14 10.7035 19.9445 10.508C19.749 10.3125 19.433 10.3125 19.2375 10.508L8.0485 21.6975L5.662 21.9625L5.927 19.576L17.117 8.387C17.3125 8.1915 17.3125 7.8755 17.117 7.68C16.9215 7.4845 16.6055 7.4845 16.41 7.68L5.22 18.869L3.6285 19.046L17.47 5.2045L22.42 10.1545L8.5785 23.996L8.7555 22.4045L8.7555 22.4045ZM24.541 8.0335L19.591 3.0835L20.2985 2.376L25.2485 7.326L24.541 8.0335L24.541 8.0335Z" id="Shape" fill="#949FB3" stroke="none" />
</svg>